STARTFONT 2.1
FONT --Aa180Gvp-Regular-R-Normal--23-180-92-92-P-123-GEM-0
SIZE 18 92 92
FONTBOUNDINGBOX 29 27 -1 -5
METRICSSET 2
STARTPROPERTIES 21
FONT_ASCENT 18
FONT_DESCENT 5
PIXEL_SIZE 23
RESOLUTION_X 92
RESOLUTION_Y 92
POINT_SIZE 180
FACE_NAME "Swiss"
FOUNDRY ""
FAMILY_NAME "Aa180Gvp"
WEIGHT_NAME "Regular"
RELATIVE_WEIGHT 50
SLANT "R"
SPACING "P"
SETWIDTH_NAME "Normal"
RELATIVE_SETWIDTH 50
ADD_STYLE_NAME ""
AVERAGE_WIDTH 123
UNDERLINE_THICKNESS 2
CHARSET_REGISTRY "GEM"
CHARSET_ENCODING "0"
GDOS "font-id=2 left-offset=2 right-offset=8"
ENDPROPERTIES
CHARS 194
STARTCHAR space
ENCODING 32
SWIDTH 261 0
DWIDTH 6 0
BBX 0 0 6 22
VVECTOR 9 22
SWIDTH1 0 -1174
DWIDTH1 0 -27
BITMAP 
ENDCHAR
STARTCHAR exclam
ENCODING 33
SWIDTH 304 0
DWIDTH 7 0
BBX 2 16 3 0
VVECTOR 5 22
SWIDTH1 0 -1174
DWIDTH1 0 -27
BITMAP 
C0
C0
C0
C0
C0
C0
C0
C0
C0
C0
C0
C0
00
00
C0
C0
ENDCHAR
STARTCHAR quotedbl
ENCODING 34
SWIDTH 304 0
DWIDTH 7 0
BBX 5 6 1 11
VVECTOR 4 22
SWIDTH1 0 -1174
DWIDTH1 0 -27
BITMAP 
D8
D8
D8
D8
D8
D8
ENDCHAR
STARTCHAR numbersign
ENCODING 35
SWIDTH 739 0
DWIDTH 17 0
BBX 15 17 1 0
VVECTOR 9 22
SWIDTH1 0 -1174
DWIDTH1 0 -27
BITMAP 
0188
0118
0318
0310
0230
3FFE
7FFE
0460
0C60
0C40
FFFC
FFF8
1880
1980
3180
3100
3300
ENDCHAR
STARTCHAR dollar
ENCODING 36
SWIDTH 522 0
DWIDTH 12 0
BBX 10 20 1 -2
VVECTOR 6 22
SWIDTH1 0 -1174
DWIDTH1 0 -27
BITMAP 
0800
0800
0800
3E00
7F00
E980
C8C0
C800
C800
7800
1F00
0B80
08C0
C8C0
C8C0
E980
7F00
1E00
0800
0800
ENDCHAR
STARTCHAR percent
ENCODING 37
SWIDTH 826 0
DWIDTH 19 0
BBX 18 16 1 0
VVECTOR 11 22
SWIDTH1 0 -1174
DWIDTH1 0 -27
BITMAP 
380400
7E0800
E60800
C31000
C33000
E62000
7E4000
3C4000
008F00
019F80
0139C0
0330C0
0230C0
043980
041F80
080E00
ENDCHAR
STARTCHAR ampersand
ENCODING 38
SWIDTH 652 0
DWIDTH 15 0
BBX 14 16 1 0
VVECTOR 9 22
SWIDTH1 0 -1174
DWIDTH1 0 -27
BITMAP 
0E00
1F00
3180
3180
3180
3300
1E00
3C00
7630
E330
C1E0
C1E0
C0E0
63F0
7F38
1C1C
ENDCHAR
STARTCHAR quotesingle
ENCODING 39
SWIDTH 261 0
DWIDTH 6 0
BBX 2 6 2 10
VVECTOR 3 22
SWIDTH1 0 -1174
DWIDTH1 0 -27
BITMAP 
C0
C0
40
40
C0
80
ENDCHAR
STARTCHAR parenleft
ENCODING 40
SWIDTH 348 0
DWIDTH 8 0
BBX 5 20 3 -4
VVECTOR 7 22
SWIDTH1 0 -1174
DWIDTH1 0 -27
BITMAP 
18
10
30
60
60
60
C0
C0
C0
C0
C0
C0
C0
C0
60
60
20
30
10
18
ENDCHAR
STARTCHAR parenright
ENCODING 41
SWIDTH 348 0
DWIDTH 8 0
BBX 5 20 0 -4
VVECTOR 1 22
SWIDTH1 0 -1174
DWIDTH1 0 -27
BITMAP 
C0
40
60
30
30
30
18
18
18
18
18
18
18
18
30
30
30
60
40
C0
ENDCHAR
STARTCHAR asterisk
ENCODING 42
SWIDTH 478 0
DWIDTH 11 0
BBX 9 8 1 8
VVECTOR 6 22
SWIDTH1 0 -1174
DWIDTH1 0 -27
BITMAP 
0800
0800
C980
FF80
1C00
1400
7700
2200
ENDCHAR
STARTCHAR plus
ENCODING 43
SWIDTH 826 0
DWIDTH 19 0
BBX 14 14 3 0
VVECTOR 11 22
SWIDTH1 0 -1174
DWIDTH1 0 -27
BITMAP 
0300
0300
0300
0300
0300
0300
FFFC
FFFC
0300
0300
0300
0300
0300
0300
ENDCHAR
STARTCHAR comma
ENCODING 44
SWIDTH 261 0
DWIDTH 6 0
BBX 2 5 2 -3
VVECTOR 3 22
SWIDTH1 0 -1174
DWIDTH1 0 -27
BITMAP 
C0
C0
40
40
80
ENDCHAR
STARTCHAR hyphen
ENCODING 45
SWIDTH 304 0
DWIDTH 7 0
BBX 5 2 1 6
VVECTOR 4 22
SWIDTH1 0 -1174
DWIDTH1 0 -27
BITMAP 
F8
F8
ENDCHAR
STARTCHAR period
ENCODING 46
SWIDTH 261 0
DWIDTH 6 0
BBX 2 2 2 0
VVECTOR 3 22
SWIDTH1 0 -1174
DWIDTH1 0 -27
BITMAP 
C0
C0
ENDCHAR
STARTCHAR slash
ENCODING 47
SWIDTH 304 0
DWIDTH 7 0
BBX 7 18 0 -2
VVECTOR 4 22
SWIDTH1 0 -1174
DWIDTH1 0 -27
BITMAP 
06
06
04
0C
0C
08
08
18
10
10
30
20
20
60
40
40
C0
C0
ENDCHAR
STARTCHAR zero
ENCODING 48
SWIDTH 522 0
DWIDTH 12 0
BBX 10 15 1 0
VVECTOR 6 22
SWIDTH1 0 -1174
DWIDTH1 0 -27
BITMAP 
1E00
3F00
6380
6180
C0C0
C0C0
C0C0
C0C0
C0C0
C0C0
C0C0
6180
7180
3F00
1E00
ENDCHAR
STARTCHAR one
ENCODING 49
SWIDTH 522 0
DWIDTH 12 0
BBX 6 15 2 0
VVECTOR 4 22
SWIDTH1 0 -1174
DWIDTH1 0 -27
BITMAP 
0C
0C
1C
FC
FC
0C
0C
0C
0C
0C
0C
0C
0C
0C
0C
ENDCHAR
STARTCHAR two
ENCODING 50
SWIDTH 522 0
DWIDTH 12 0
BBX 10 15 1 0
VVECTOR 6 22
SWIDTH1 0 -1174
DWIDTH1 0 -27
BITMAP 
1E00
3F80
6180
C0C0
C0C0
00C0
0180
0780
0E00
3C00
7000
E000
C000
FFC0
FFC0
ENDCHAR
STARTCHAR three
ENCODING 51
SWIDTH 522 0
DWIDTH 12 0
BBX 10 15 1 0
VVECTOR 6 22
SWIDTH1 0 -1174
DWIDTH1 0 -27
BITMAP 
1E00
3F00
6180
6180
C180
0180
0F00
0F80
01C0
00C0
C0C0
C0C0
6180
7F80
1E00
ENDCHAR
STARTCHAR four
ENCODING 52
SWIDTH 522 0
DWIDTH 12 0
BBX 11 15 1 0
VVECTOR 7 22
SWIDTH1 0 -1174
DWIDTH1 0 -27
BITMAP 
0180
0380
0780
0D80
1980
1980
3180
6180
C180
FFE0
FFE0
0180
0180
0180
0180
ENDCHAR
STARTCHAR five
ENCODING 53
SWIDTH 522 0
DWIDTH 12 0
BBX 10 15 1 0
VVECTOR 6 22
SWIDTH1 0 -1174
DWIDTH1 0 -27
BITMAP 
7F80
7F80
6000
6000
6000
5E00
7F80
E180
00C0
00C0
00C0
C0C0
6180
7F00
1E00
ENDCHAR
STARTCHAR six
ENCODING 54
SWIDTH 522 0
DWIDTH 12 0
BBX 10 15 1 0
VVECTOR 6 22
SWIDTH1 0 -1174
DWIDTH1 0 -27
BITMAP 
1F00
3F80
7180
60C0
C000
DE00
FF80
E180
E0C0
C0C0
C0C0
60C0
6180
3F80
1E00
ENDCHAR
STARTCHAR seven
ENCODING 55
SWIDTH 522 0
DWIDTH 12 0
BBX 10 15 1 0
VVECTOR 6 22
SWIDTH1 0 -1174
DWIDTH1 0 -27
BITMAP 
FFC0
FFC0
0080
0180
0300
0600
0600
0C00
0C00
1800
1800
1800
3800
3000
3000
ENDCHAR
STARTCHAR eight
ENCODING 56
SWIDTH 522 0
DWIDTH 12 0
BBX 10 15 1 0
VVECTOR 6 22
SWIDTH1 0 -1174
DWIDTH1 0 -27
BITMAP 
1E00
7F00
6180
C180
6180
6180
3F00
7F80
6180
C0C0
C0C0
C0C0
6180
7F80
1E00
ENDCHAR
STARTCHAR nine
ENCODING 57
SWIDTH 522 0
DWIDTH 12 0
BBX 10 15 1 0
VVECTOR 6 22
SWIDTH1 0 -1174
DWIDTH1 0 -27
BITMAP 
1E00
7F00
6180
C180
C0C0
C0C0
C1C0
61C0
7FC0
1EC0
00C0
C180
E380
7F00
3E00
ENDCHAR
STARTCHAR colon
ENCODING 58
SWIDTH 304 0
DWIDTH 7 0
BBX 2 12 3 0
VVECTOR 5 22
SWIDTH1 0 -1174
DWIDTH1 0 -27
BITMAP 
C0
C0
00
00
00
00
00
00
00
00
C0
C0
ENDCHAR
STARTCHAR semicolon
ENCODING 59
SWIDTH 304 0
DWIDTH 7 0
BBX 2 15 3 -3
VVECTOR 5 22
SWIDTH1 0 -1174
DWIDTH1 0 -27
BITMAP 
C0
C0
00
00
00
00
00
00
00
00
C0
C0
40
40
80
ENDCHAR
STARTCHAR less
ENCODING 60
SWIDTH 826 0
DWIDTH 19 0
BBX 13 12 3 1
VVECTOR 10 22
SWIDTH1 0 -1174
DWIDTH1 0 -27
BITMAP 
0008
0078
01E0
0F80
3C00
F000
F000
3C00
0F00
01E0
0078
0008
ENDCHAR
STARTCHAR equal
ENCODING 61
SWIDTH 826 0
DWIDTH 19 0
BBX 13 7 3 4
VVECTOR 10 22
SWIDTH1 0 -1174
DWIDTH1 0 -27
BITMAP 
FFF8
FFF8
0000
0000
0000
FFF8
FFF8
ENDCHAR
STARTCHAR greater
ENCODING 62
SWIDTH 826 0
DWIDTH 19 0
BBX 13 12 3 1
VVECTOR 10 22
SWIDTH1 0 -1174
DWIDTH1 0 -27
BITMAP 
8000
F000
3C00
0F80
01E0
0078
0078
01E0
0780
3C00
F000
8000
ENDCHAR
STARTCHAR question
ENCODING 63
SWIDTH 522 0
DWIDTH 12 0
BBX 10 16 1 0
VVECTOR 6 22
SWIDTH1 0 -1174
DWIDTH1 0 -27
BITMAP 
1F00
7F80
61C0
C0C0
C0C0
00C0
0180
0300
0600
0C00
0C00
0C00
0000
0000
0C00
0C00
ENDCHAR
STARTCHAR at
ENCODING 64
SWIDTH 1000 0
DWIDTH 23 0
BBX 21 20 1 -3
VVECTOR 12 22
SWIDTH1 0 -1174
DWIDTH1 0 -27
BITMAP 
01FE00
0703C0
0C00E0
180060
300030
60F218
618E18
C30618
C30618
C60418
C60C30
C60C30
C60C60
431CC0
61E780
200000
300040
1800C0
0F0780
03FC00
ENDCHAR
STARTCHAR A
ENCODING 65
SWIDTH 652 0
DWIDTH 15 0
BBX 15 16 0 0
VVECTOR 8 22
SWIDTH1 0 -1174
DWIDTH1 0 -27
BITMAP 
0380
0380
06C0
06C0
0EE0
0C60
0C60
1830
1830
1FF0
3FF8
3018
701C
600C
600C
E00E
ENDCHAR
STARTCHAR B
ENCODING 66
SWIDTH 652 0
DWIDTH 15 0
BBX 12 16 2 0
VVECTOR 9 22
SWIDTH1 0 -1174
DWIDTH1 0 -27
BITMAP 
FF80
FFE0
C0E0
C060
C060
C060
C0E0
FFC0
FFE0
C060
C030
C030
C030
C060
FFE0
FF80
ENDCHAR
STARTCHAR C
ENCODING 67
SWIDTH 696 0
DWIDTH 16 0
BBX 14 16 1 0
VVECTOR 8 22
SWIDTH1 0 -1174
DWIDTH1 0 -27
BITMAP 
0FC0
1FF0
3838
701C
600C
C000
C000
C000
C000
C000
C00C
600C
7018
3838
1FF0
0FC0
ENDCHAR
STARTCHAR D
ENCODING 68
SWIDTH 696 0
DWIDTH 16 0
BBX 13 16 2 0
VVECTOR 9 22
SWIDTH1 0 -1174
DWIDTH1 0 -27
BITMAP 
FF80
FFE0
C0F0
C030
C038
C018
C018
C018
C018
C018
C018
C030
C030
C0F0
FFE0
FF80
ENDCHAR
STARTCHAR E
ENCODING 69
SWIDTH 609 0
DWIDTH 14 0
BBX 11 16 2 0
VVECTOR 8 22
SWIDTH1 0 -1174
DWIDTH1 0 -27
BITMAP 
FFE0
FFE0
C000
C000
C000
C000
C000
FFC0
FFC0
C000
C000
C000
C000
C000
FFE0
FFE0
ENDCHAR
STARTCHAR F
ENCODING 70
SWIDTH 565 0
DWIDTH 13 0
BBX 10 16 2 0
VVECTOR 8 22
SWIDTH1 0 -1174
DWIDTH1 0 -27
BITMAP 
FFC0
FFC0
C000
C000
C000
C000
C000
FF80
FF80
C000
C000
C000
C000
C000
C000
C000
ENDCHAR
STARTCHAR G
ENCODING 71
SWIDTH 739 0
DWIDTH 17 0
BBX 15 16 1 0
VVECTOR 9 22
SWIDTH1 0 -1174
DWIDTH1 0 -27
BITMAP 
07E0
1FF8
383C
700C
600E
C000
C000
C0FE
C0FE
C006
C006
600E
700E
383E
1FF6
07C2
ENDCHAR
STARTCHAR H
ENCODING 72
SWIDTH 696 0
DWIDTH 16 0
BBX 12 16 2 0
VVECTOR 8 22
SWIDTH1 0 -1174
DWIDTH1 0 -27
BITMAP 
C030
C030
C030
C030
C030
C030
C030
FFF0
FFF0
C030
C030
C030
C030
C030
C030
C030
ENDCHAR
STARTCHAR I
ENCODING 73
SWIDTH 261 0
DWIDTH 6 0
BBX 2 16 2 0
VVECTOR 3 22
SWIDTH1 0 -1174
DWIDTH1 0 -27
BITMAP 
C0
C0
C0
C0
C0
C0
C0
C0
C0
C0
C0
C0
C0
C0
C0
C0
ENDCHAR
STARTCHAR J
ENCODING 74
SWIDTH 478 0
DWIDTH 11 0
BBX 9 16 0 0
VVECTOR 4 22
SWIDTH1 0 -1174
DWIDTH1 0 -27
BITMAP 
0180
0180
0180
0180
0180
0180
0180
0180
0180
0180
C180
C180
C180
E380
7F00
3E00
ENDCHAR
STARTCHAR K
ENCODING 75
SWIDTH 652 0
DWIDTH 15 0
BBX 13 16 2 0
VVECTOR 10 22
SWIDTH1 0 -1174
DWIDTH1 0 -27
BITMAP 
C078
C0E0
C1C0
C380
C700
CE00
DC00
FE00
F700
E300
C380
C1C0
C0E0
C0E0
C070
C038
ENDCHAR
STARTCHAR L
ENCODING 76
SWIDTH 522 0
DWIDTH 12 0
BBX 10 16 2 0
VVECTOR 8 22
SWIDTH1 0 -1174
DWIDTH1 0 -27
BITMAP 
C000
C000
C000
C000
C000
C000
C000
C000
C000
C000
C000
C000
C000
C000
FFC0
FFC0
ENDCHAR
STARTCHAR M
ENCODING 77
SWIDTH 826 0
DWIDTH 19 0
BBX 15 16 2 0
VVECTOR 10 22
SWIDTH1 0 -1174
DWIDTH1 0 -27
BITMAP 
E00E
F00E
F01E
F01E
D836
D836
D836
CC66
CC66
CC66
C6C6
C6C6
C6C6
C286
C386
C386
ENDCHAR
STARTCHAR N
ENCODING 78
SWIDTH 696 0
DWIDTH 16 0
BBX 12 16 2 0
VVECTOR 8 22
SWIDTH1 0 -1174
DWIDTH1 0 -27
BITMAP 
E030
E030
F030
F030
D830
DC30
CC30
C630
C630
C330
C3B0
C1B0
C0F0
C0F0
C070
C070
ENDCHAR
STARTCHAR O
ENCODING 79
SWIDTH 783 0
DWIDTH 18 0
BBX 16 16 1 0
VVECTOR 9 22
SWIDTH1 0 -1174
DWIDTH1 0 -27
BITMAP 
07E0
1FF8
381C
700E
6006
C003
C003
C003
C003
C003
C003
6006
700E
381C
1FF8
07E0
ENDCHAR
STARTCHAR P
ENCODING 80
SWIDTH 609 0
DWIDTH 14 0
BBX 11 16 2 0
VVECTOR 8 22
SWIDTH1 0 -1174
DWIDTH1 0 -27
BITMAP 
FF80
FFC0
C0E0
C060
C060
C060
C0E0
FFC0
FF80
C000
C000
C000
C000
C000
C000
C000
ENDCHAR
STARTCHAR Q
ENCODING 81
SWIDTH 783 0
DWIDTH 18 0
BBX 16 17 1 -1
VVECTOR 9 22
SWIDTH1 0 -1174
DWIDTH1 0 -27
BITMAP 
07E0
1FF8
381C
700E
6006
C003
C003
C003
C003
C003
C003
6066
707E
381C
1FFE
07E7
0002
ENDCHAR
STARTCHAR R
ENCODING 82
SWIDTH 652 0
DWIDTH 15 0
BBX 12 16 2 0
VVECTOR 9 22
SWIDTH1 0 -1174
DWIDTH1 0 -27
BITMAP 
FFC0
FFE0
C070
C030
C030
C030
C060
FFE0
FFE0
C060
C030
C030
C030
C030
C030
C030
ENDCHAR
STARTCHAR S
ENCODING 83
SWIDTH 652 0
DWIDTH 15 0
BBX 13 16 1 0
VVECTOR 8 22
SWIDTH1 0 -1174
DWIDTH1 0 -27
BITMAP 
1F80
3FE0
7070
C030
C038
C000
7C00
3FE0
01F0
0038
C018
C018
C038
F070
7FE0
1FC0
ENDCHAR
STARTCHAR T
ENCODING 84
SWIDTH 565 0
DWIDTH 13 0
BBX 12 16 1 0
VVECTOR 8 22
SWIDTH1 0 -1174
DWIDTH1 0 -27
BITMAP 
FFF0
FFF0
0600
0600
0600
0600
0600
0600
0600
0600
0600
0600
0600
0600
0600
0600
ENDCHAR
STARTCHAR U
ENCODING 85
SWIDTH 696 0
DWIDTH 16 0
BBX 12 16 2 0
VVECTOR 8 22
SWIDTH1 0 -1174
DWIDTH1 0 -27
BITMAP 
C030
C030
C030
C030
C030
C030
C030
C030
C030
C030
C030
C030
E070
70E0
3FC0
1F80
ENDCHAR
STARTCHAR V
ENCODING 86
SWIDTH 609 0
DWIDTH 14 0
BBX 14 16 0 0
VVECTOR 7 22
SWIDTH1 0 -1174
DWIDTH1 0 -27
BITMAP 
E01C
6018
6018
7038
3030
3030
3870
1860
1860
0CC0
0CC0
0CC0
0780
0780
0780
0300
ENDCHAR
STARTCHAR W
ENCODING 87
SWIDTH 870 0
DWIDTH 20 0
BBX 20 16 0 0
VVECTOR 10 22
SWIDTH1 0 -1174
DWIDTH1 0 -27
BITMAP 
C0E070
C0E060
60E060
61A060
61B0E0
61B0C0
3130C0
3319C0
331980
331980
1A0980
1E0F00
1E0F00
1E0F00
0C0600
0C0600
ENDCHAR
STARTCHAR X
ENCODING 88
SWIDTH 609 0
DWIDTH 14 0
BBX 14 16 0 0
VVECTOR 7 22
SWIDTH1 0 -1174
DWIDTH1 0 -27
BITMAP 
E01C
7038
3870
1860
1CE0
0FC0
0780
0700
0780
0780
0CC0
1CE0
3870
3030
7038
E01C
ENDCHAR
STARTCHAR Y
ENCODING 89
SWIDTH 609 0
DWIDTH 14 0
BBX 14 16 0 0
VVECTOR 7 22
SWIDTH1 0 -1174
DWIDTH1 0 -27
BITMAP 
E01C
7038
3030
3870
1860
1CE0
0CC0
0780
0780
0300
0300
0300
0300
0300
0300
0300
ENDCHAR
STARTCHAR Z
ENCODING 90
SWIDTH 609 0
DWIDTH 14 0
BBX 13 16 1 0
VVECTOR 8 22
SWIDTH1 0 -1174
DWIDTH1 0 -27
BITMAP 
7FF8
7FF8
0038
0070
00E0
01C0
0180
0300
0700
0E00
1C00
3800
7000
6000
FFF8
FFF8
ENDCHAR
STARTCHAR bracketleft
ENCODING 91
SWIDTH 348 0
DWIDTH 8 0
BBX 4 20 3 -4
VVECTOR 6 22
SWIDTH1 0 -1174
DWIDTH1 0 -27
BITMAP 
F0
F0
C0
C0
C0
C0
C0
C0
C0
C0
C0
C0
C0
C0
C0
C0
C0
C0
F0
F0
ENDCHAR
STARTCHAR backslash
ENCODING 92
SWIDTH 304 0
DWIDTH 7 0
BBX 7 18 0 -2
VVECTOR 4 22
SWIDTH1 0 -1174
DWIDTH1 0 -27
BITMAP 
C0
C0
40
40
60
20
20
30
10
10
18
08
08
0C
0C
04
06
06
ENDCHAR
STARTCHAR bracketright
ENCODING 93
SWIDTH 348 0
DWIDTH 8 0
BBX 4 20 1 -4
VVECTOR 2 22
SWIDTH1 0 -1174
DWIDTH1 0 -27
BITMAP 
F0
F0
30
30
30
30
30
30
30
30
30
30
30
30
30
30
30
30
F0
F0
ENDCHAR
STARTCHAR asciicircum
ENCODING 94
SWIDTH 1000 0
DWIDTH 23 0
BBX 14 6 4 11
VVECTOR 11 22
SWIDTH1 0 -1174
DWIDTH1 0 -27
BITMAP 
0780
0FC0
1CE0
3870
7038
E01C
ENDCHAR
STARTCHAR underscore
ENCODING 95
SWIDTH 478 0
DWIDTH 11 0
BBX 11 2 0 -5
VVECTOR 6 22
SWIDTH1 0 -1174
DWIDTH1 0 -27
BITMAP 
FFE0
FFE0
ENDCHAR
STARTCHAR grave
ENCODING 96
SWIDTH 261 0
DWIDTH 6 0
BBX 2 6 2 10
VVECTOR 3 22
SWIDTH1 0 -1174
DWIDTH1 0 -27
BITMAP 
40
C0
80
80
C0
C0
ENDCHAR
STARTCHAR a
ENCODING 97
SWIDTH 522 0
DWIDTH 12 0
BBX 11 12 1 0
VVECTOR 7 22
SWIDTH1 0 -1174
DWIDTH1 0 -27
BITMAP 
1F00
7F80
61C0
40C0
00C0
1FC0
7EC0
E0C0
C0C0
C1C0
7EE0
3C60
ENDCHAR
STARTCHAR b
ENCODING 98
SWIDTH 565 0
DWIDTH 13 0
BBX 11 16 1 0
VVECTOR 7 22
SWIDTH1 0 -1174
DWIDTH1 0 -27
BITMAP 
C000
C000
C000
C000
CF00
DF80
E1C0
E0E0
C060
C060
C060
C060
E0E0
F1C0
DF80
CF00
ENDCHAR
STARTCHAR c
ENCODING 99
SWIDTH 522 0
DWIDTH 12 0
BBX 10 12 1 0
VVECTOR 6 22
SWIDTH1 0 -1174
DWIDTH1 0 -27
BITMAP 
1E00
3F80
6180
C0C0
C000
C000
C000
C0C0
60C0
7180
3F80
1E00
ENDCHAR
STARTCHAR d
ENCODING 100
SWIDTH 565 0
DWIDTH 13 0
BBX 11 16 1 0
VVECTOR 7 22
SWIDTH1 0 -1174
DWIDTH1 0 -27
BITMAP 
0060
0060
0060
0060
1E60
3F60
71E0
E0E0
C060
C060
C060
C060
E0E0
71E0
3F60
1E60
ENDCHAR
STARTCHAR e
ENCODING 101
SWIDTH 522 0
DWIDTH 12 0
BBX 10 12 1 0
VVECTOR 6 22
SWIDTH1 0 -1174
DWIDTH1 0 -27
BITMAP 
1E00
3F00
6180
C0C0
C0C0
FFC0
FFC0
C000
C0C0
6180
3F00
1E00
ENDCHAR
STARTCHAR f
ENCODING 102
SWIDTH 261 0
DWIDTH 6 0
BBX 6 16 0 0
VVECTOR 3 22
SWIDTH1 0 -1174
DWIDTH1 0 -27
BITMAP 
1C
3C
30
30
FC
FC
30
30
30
30
30
30
30
30
30
30
ENDCHAR
STARTCHAR g
ENCODING 103
SWIDTH 565 0
DWIDTH 13 0
BBX 11 16 1 -4
VVECTOR 7 22
SWIDTH1 0 -1174
DWIDTH1 0 -27
BITMAP 
1E60
3FE0
71E0
E0E0
C060
C060
C060
C060
E060
70E0
3F60
1E60
0060
E0E0
7FC0
1F00
ENDCHAR
STARTCHAR h
ENCODING 104
SWIDTH 565 0
DWIDTH 13 0
BBX 11 16 1 0
VVECTOR 7 22
SWIDTH1 0 -1174
DWIDTH1 0 -27
BITMAP 
C000
C000
C000
C000
CF80
DFC0
F0E0
E060
C060
C060
C060
C060
C060
C060
C060
C060
ENDCHAR
STARTCHAR i
ENCODING 105
SWIDTH 174 0
DWIDTH 4 0
BBX 2 16 1 0
VVECTOR 2 22
SWIDTH1 0 -1174
DWIDTH1 0 -27
BITMAP 
C0
C0
00
00
C0
C0
C0
C0
C0
C0
C0
C0
C0
C0
C0
C0
ENDCHAR
STARTCHAR j
ENCODING 106
SWIDTH 174 0
DWIDTH 4 0
BBX 3 20 0 -4
VVECTOR 1 22
SWIDTH1 0 -1174
DWIDTH1 0 -27
BITMAP 
60
60
00
00
60
60
60
60
60
60
60
60
60
60
60
60
60
60
E0
C0
ENDCHAR
STARTCHAR k
ENCODING 107
SWIDTH 522 0
DWIDTH 12 0
BBX 11 16 1 0
VVECTOR 7 22
SWIDTH1 0 -1174
DWIDTH1 0 -27
BITMAP 
C000
C000
C000
C000
C0E0
C380
C700
CE00
DC00
FE00
F600
C300
C380
C180
C1C0
C0E0
ENDCHAR
STARTCHAR l
ENCODING 108
SWIDTH 174 0
DWIDTH 4 0
BBX 2 16 1 0
VVECTOR 2 22
SWIDTH1 0 -1174
DWIDTH1 0 -27
BITMAP 
C0
C0
C0
C0
C0
C0
C0
C0
C0
C0
C0
C0
C0
C0
C0
C0
ENDCHAR
STARTCHAR m
ENCODING 109
SWIDTH 783 0
DWIDTH 18 0
BBX 16 12 1 0
VVECTOR 9 22
SWIDTH1 0 -1174
DWIDTH1 0 -27
BITMAP 
DF3C
FF7E
E3C7
C183
C183
C183
C183
C183
C183
C183
C183
C183
ENDCHAR
STARTCHAR n
ENCODING 110
SWIDTH 565 0
DWIDTH 13 0
BBX 11 12 1 0
VVECTOR 7 22
SWIDTH1 0 -1174
DWIDTH1 0 -27
BITMAP 
CFC0
FFC0
F0E0
E060
C060
C060
C060
C060
C060
C060
C060
C060
ENDCHAR
STARTCHAR o
ENCODING 111
SWIDTH 565 0
DWIDTH 13 0
BBX 11 12 1 0
VVECTOR 7 22
SWIDTH1 0 -1174
DWIDTH1 0 -27
BITMAP 
1F00
3F80
71C0
E0E0
C060
C060
C060
C060
E0E0
71C0
3F80
1F00
ENDCHAR
STARTCHAR p
ENCODING 112
SWIDTH 565 0
DWIDTH 13 0
BBX 11 16 1 -4
VVECTOR 7 22
SWIDTH1 0 -1174
DWIDTH1 0 -27
BITMAP 
DF00
DF80
F1C0
E0E0
C060
C060
C060
C060
E0E0
F1C0
DF80
CF00
C000
C000
C000
C000
ENDCHAR
STARTCHAR q
ENCODING 113
SWIDTH 565 0
DWIDTH 13 0
BBX 11 16 1 -4
VVECTOR 7 22
SWIDTH1 0 -1174
DWIDTH1 0 -27
BITMAP 
3F60
3F60
71E0
E0E0
C060
C060
C060
C060
E0E0
71E0
3F60
1E60
0060
0060
0060
0060
ENDCHAR
STARTCHAR r
ENCODING 114
SWIDTH 348 0
DWIDTH 8 0
BBX 7 12 1 0
VVECTOR 5 22
SWIDTH1 0 -1174
DWIDTH1 0 -27
BITMAP 
DE
FE
F0
E0
C0
C0
C0
C0
C0
C0
C0
C0
ENDCHAR
STARTCHAR s
ENCODING 115
SWIDTH 478 0
DWIDTH 11 0
BBX 9 12 1 0
VVECTOR 6 22
SWIDTH1 0 -1174
DWIDTH1 0 -27
BITMAP 
3C00
7F00
E300
C180
C000
7C00
1F00
0180
C180
E380
7F00
3E00
ENDCHAR
STARTCHAR t
ENCODING 116
SWIDTH 261 0
DWIDTH 6 0
BBX 6 16 0 0
VVECTOR 3 22
SWIDTH1 0 -1174
DWIDTH1 0 -27
BITMAP 
30
30
30
30
FC
FC
30
30
30
30
30
30
30
30
3C
1C
ENDCHAR
STARTCHAR u
ENCODING 117
SWIDTH 565 0
DWIDTH 13 0
BBX 11 12 1 0
VVECTOR 7 22
SWIDTH1 0 -1174
DWIDTH1 0 -27
BITMAP 
C060
C060
C060
C060
C060
C060
C060
C060
C0E0
E1E0
7F60
3E60
ENDCHAR
STARTCHAR v
ENCODING 118
SWIDTH 522 0
DWIDTH 12 0
BBX 12 12 0 0
VVECTOR 6 22
SWIDTH1 0 -1174
DWIDTH1 0 -27
BITMAP 
E070
6060
6060
70C0
30C0
30C0
1980
1980
0F00
0F00
0F00
0600
ENDCHAR
STARTCHAR w
ENCODING 119
SWIDTH 739 0
DWIDTH 17 0
BBX 17 12 0 0
VVECTOR 9 22
SWIDTH1 0 -1174
DWIDTH1 0 -27
BITMAP 
E1C180
61C300
63E300
636300
336600
336600
322600
1E3C00
1E3C00
1E3C00
0C1800
0C1800
ENDCHAR
STARTCHAR x
ENCODING 120
SWIDTH 478 0
DWIDTH 11 0
BBX 11 12 0 0
VVECTOR 6 22
SWIDTH1 0 -1174
DWIDTH1 0 -27
BITMAP 
E0E0
71C0
3180
1B00
1F00
0E00
0E00
1B00
3B80
3180
60C0
E0E0
ENDCHAR
STARTCHAR y
ENCODING 121
SWIDTH 478 0
DWIDTH 11 0
BBX 11 16 0 -4
VVECTOR 6 22
SWIDTH1 0 -1174
DWIDTH1 0 -27
BITMAP 
C060
60C0
60C0
60C0
3180
3180
3B00
1B00
1B00
0E00
0E00
0E00
0C00
0C00
7800
7000
ENDCHAR
STARTCHAR z
ENCODING 122
SWIDTH 478 0
DWIDTH 11 0
BBX 10 12 1 0
VVECTOR 7 22
SWIDTH1 0 -1174
DWIDTH1 0 -27
BITMAP 
FFC0
FFC0
0180
0300
0600
0E00
1C00
3800
7000
6000
FFC0
FFC0
ENDCHAR
STARTCHAR braceleft
ENCODING 123
SWIDTH 478 0
DWIDTH 11 0
BBX 8 21 2 -4
VVECTOR 7 22
SWIDTH1 0 -1174
DWIDTH1 0 -27
BITMAP 
07
0F
1C
18
18
18
18
18
38
F0
F0
38
18
18
18
18
18
18
1C
0F
0F
ENDCHAR
STARTCHAR bar
ENCODING 124
SWIDTH 478 0
DWIDTH 11 0
BBX 2 23 5 -5
VVECTOR 7 22
SWIDTH1 0 -1174
DWIDTH1 0 -27
BITMAP 
C0
C0
C0
C0
C0
C0
C0
C0
C0
C0
C0
C0
C0
C0
C0
C0
C0
C0
C0
C0
C0
C0
C0
ENDCHAR
STARTCHAR braceright
ENCODING 125
SWIDTH 478 0
DWIDTH 11 0
BBX 8 21 1 -4
VVECTOR 5 22
SWIDTH1 0 -1174
DWIDTH1 0 -27
BITMAP 
F0
F0
38
18
18
18
18
18
1C
0F
0F
1C
18
18
18
18
18
18
38
F0
E0
ENDCHAR
STARTCHAR asciitilde
ENCODING 126
SWIDTH 1000 0
DWIDTH 23 0
BBX 14 5 5 11
VVECTOR 13 22
SWIDTH1 0 -1174
DWIDTH1 0 -27
BITMAP 
3C0C
7E0C
E31C
C1F8
C0F0
ENDCHAR
STARTCHAR char7F
ENCODING 127
SWIDTH 0 0
DWIDTH 0 0
BBX 0 0 0 -5
VVECTOR 0 -5
SWIDTH1 0 0
DWIDTH1 0 0
BITMAP 
ENDCHAR
STARTCHAR Ccedilla
ENCODING 128
SWIDTH 696 0
DWIDTH 16 0
BBX 14 20 1 -4
VVECTOR 8 22
SWIDTH1 0 -1174
DWIDTH1 0 -27
BITMAP 
0FC0
1FF0
3838
701C
600C
C000
C000
C000
C000
C000
C00C
600C
7018
3838
1FF0
0FC0
0100
01C0
0040
07C0
ENDCHAR
STARTCHAR udieresis
ENCODING 129
SWIDTH 565 0
DWIDTH 13 0
BBX 11 17 1 0
VVECTOR 7 22
SWIDTH1 0 -1174
DWIDTH1 0 -27
BITMAP 
1980
1980
0000
0000
0000
C060
C060
C060
C060
C060
C060
C060
C060
C0E0
E1E0
7F60
3E60
ENDCHAR
STARTCHAR eacute
ENCODING 130
SWIDTH 522 0
DWIDTH 12 0
BBX 10 18 1 0
VVECTOR 6 22
SWIDTH1 0 -1174
DWIDTH1 0 -27
BITMAP 
0300
0600
0400
0C00
0000
0000
1E00
3F00
6180
C0C0
C0C0
FFC0
FFC0
C000
C0C0
6180
3F00
1E00
ENDCHAR
STARTCHAR acircumflex
ENCODING 131
SWIDTH 522 0
DWIDTH 12 0
BBX 11 18 1 0
VVECTOR 7 22
SWIDTH1 0 -1174
DWIDTH1 0 -27
BITMAP 
0600
0F00
0900
1980
0000
0000
1F00
7F80
61C0
40C0
00C0
1FC0
7EC0
E0C0
C0C0
C1C0
7EE0
3C60
ENDCHAR
STARTCHAR adieresis
ENCODING 132
SWIDTH 522 0
DWIDTH 12 0
BBX 11 17 1 0
VVECTOR 7 22
SWIDTH1 0 -1174
DWIDTH1 0 -27
BITMAP 
1980
1980
0000
0000
0000
1F00
7F80
61C0
40C0
00C0
1FC0
7EC0
E0C0
C0C0
C1C0
7EE0
3C60
ENDCHAR
STARTCHAR agrave
ENCODING 133
SWIDTH 522 0
DWIDTH 12 0
BBX 11 18 1 0
VVECTOR 7 22
SWIDTH1 0 -1174
DWIDTH1 0 -27
BITMAP 
1800
0C00
0400
0600
0000
0000
1F00
7F80
61C0
40C0
00C0
1FC0
7EC0
E0C0
C0C0
C1C0
7EE0
3C60
ENDCHAR
STARTCHAR aring
ENCODING 134
SWIDTH 522 0
DWIDTH 12 0
BBX 11 18 1 0
VVECTOR 7 22
SWIDTH1 0 -1174
DWIDTH1 0 -27
BITMAP 
0E00
1300
1100
1300
0E00
0000
1F00
7F80
61C0
40C0
00C0
1FC0
7EC0
E0C0
C0C0
C1C0
7EE0
3C60
ENDCHAR
STARTCHAR ccedilla
ENCODING 135
SWIDTH 522 0
DWIDTH 12 0
BBX 10 16 1 -4
VVECTOR 6 22
SWIDTH1 0 -1174
DWIDTH1 0 -27
BITMAP 
1E00
3F80
6180
C0C0
C000
C000
C000
C0C0
60C0
7180
3F80
1E00
0400
0700
0100
1F00
ENDCHAR
STARTCHAR ecircumflex
ENCODING 136
SWIDTH 522 0
DWIDTH 12 0
BBX 10 18 1 0
VVECTOR 6 22
SWIDTH1 0 -1174
DWIDTH1 0 -27
BITMAP 
0600
0F00
0900
1980
0000
0000
1E00
3F00
6180
C0C0
C0C0
FFC0
FFC0
C000
C0C0
6180
3F00
1E00
ENDCHAR
STARTCHAR edieresis
ENCODING 137
SWIDTH 522 0
DWIDTH 12 0
BBX 10 17 1 0
VVECTOR 6 22
SWIDTH1 0 -1174
DWIDTH1 0 -27
BITMAP 
1980
1980
0000
0000
0000
1E00
3F00
6180
C0C0
C0C0
FFC0
FFC0
C000
C0C0
6180
3F00
1E00
ENDCHAR
STARTCHAR egrave
ENCODING 138
SWIDTH 522 0
DWIDTH 12 0
BBX 10 18 1 0
VVECTOR 6 22
SWIDTH1 0 -1174
DWIDTH1 0 -27
BITMAP 
1800
0C00
0400
0600
0000
0000
1E00
3F00
6180
C0C0
C0C0
FFC0
FFC0
C000
C0C0
6180
3F00
1E00
ENDCHAR
STARTCHAR idieresis
ENCODING 139
SWIDTH 174 0
DWIDTH 4 0
BBX 6 17 0 0
VVECTOR 3 22
SWIDTH1 0 -1174
DWIDTH1 0 -27
BITMAP 
CC
CC
00
00
00
60
60
60
60
60
60
60
60
60
60
60
60
ENDCHAR
STARTCHAR icircumflex
ENCODING 140
SWIDTH 174 0
DWIDTH 4 0
BBX 6 18 0 0
VVECTOR 3 22
SWIDTH1 0 -1174
DWIDTH1 0 -27
BITMAP 
30
78
48
CC
00
00
60
60
60
60
60
60
60
60
60
60
60
60
ENDCHAR
STARTCHAR igrave
ENCODING 141
SWIDTH 174 0
DWIDTH 4 0
BBX 4 18 0 0
VVECTOR 2 22
SWIDTH1 0 -1174
DWIDTH1 0 -27
BITMAP 
C0
60
20
30
00
00
60
60
60
60
60
60
60
60
60
60
60
60
ENDCHAR
STARTCHAR Adieresis
ENCODING 142
SWIDTH 652 0
DWIDTH 15 0
BBX 15 21 0 0
VVECTOR 8 22
SWIDTH1 0 -1174
DWIDTH1 0 -27
BITMAP 
0660
0660
0000
0000
0000
0380
0380
06C0
06C0
0EE0
0C60
0C60
1830
1830
1FF0
3FF8
3018
701C
600C
600C
E00E
ENDCHAR
STARTCHAR Aring
ENCODING 143
SWIDTH 652 0
DWIDTH 15 0
BBX 15 22 0 0
VVECTOR 8 22
SWIDTH1 0 -1174
DWIDTH1 0 -27
BITMAP 
0380
06C0
0440
06C0
0380
0000
0380
0380
06C0
06C0
0EE0
0C60
0C60
1830
1830
1FF0
3FF8
3018
701C
600C
600C
E00E
ENDCHAR
STARTCHAR Eacute
ENCODING 144
SWIDTH 609 0
DWIDTH 14 0
BBX 11 22 2 0
VVECTOR 8 22
SWIDTH1 0 -1174
DWIDTH1 0 -27
BITMAP 
0300
0600
0400
0C00
0000
0000
FFE0
FFE0
C000
C000
C000
C000
C000
FFC0
FFC0
C000
C000
C000
C000
C000
FFE0
FFE0
ENDCHAR
STARTCHAR ae
ENCODING 145
SWIDTH 870 0
DWIDTH 20 0
BBX 18 12 1 0
VVECTOR 10 22
SWIDTH1 0 -1174
DWIDTH1 0 -27
BITMAP 
1F1E00
7FBF00
61E180
40C0C0
00C0C0
1FFFC0
7EFFC0
E0C000
C0C0C0
E1E180
7F7F00
3C1E00
ENDCHAR
STARTCHAR AE
ENCODING 146
SWIDTH 957 0
DWIDTH 22 0
BBX 21 16 0 0
VVECTOR 10 22
SWIDTH1 0 -1174
DWIDTH1 0 -27
BITMAP 
01FFF8
03FFF8
033000
073000
063000
063000
0E3000
0C3FF0
1C3FF0
183000
3FF000
3FF000
303000
703000
603FF8
E03FF8
ENDCHAR
STARTCHAR ocircumflex
ENCODING 147
SWIDTH 565 0
DWIDTH 13 0
BBX 11 18 1 0
VVECTOR 7 22
SWIDTH1 0 -1174
DWIDTH1 0 -27
BITMAP 
0600
0F00
0900
1980
0000
0000
1F00
3F80
71C0
E0E0
C060
C060
C060
C060
E0E0
71C0
3F80
1F00
ENDCHAR
STARTCHAR odieresis
ENCODING 148
SWIDTH 565 0
DWIDTH 13 0
BBX 11 17 1 0
VVECTOR 7 22
SWIDTH1 0 -1174
DWIDTH1 0 -27
BITMAP 
1980
1980
0000
0000
0000
1F00
3F80
71C0
E0E0
C060
C060
C060
C060
E0E0
71C0
3F80
1F00
ENDCHAR
STARTCHAR ograve
ENCODING 149
SWIDTH 565 0
DWIDTH 13 0
BBX 11 18 1 0
VVECTOR 7 22
SWIDTH1 0 -1174
DWIDTH1 0 -27
BITMAP 
1800
0C00
0400
0600
0000
0000
1F00
3F80
71C0
E0E0
C060
C060
C060
C060
E0E0
71C0
3F80
1F00
ENDCHAR
STARTCHAR ucircumflex
ENCODING 150
SWIDTH 565 0
DWIDTH 13 0
BBX 11 18 1 0
VVECTOR 7 22
SWIDTH1 0 -1174
DWIDTH1 0 -27
BITMAP 
0600
0F00
0900
1980
0000
0000
C060
C060
C060
C060
C060
C060
C060
C060
C0E0
E1E0
7F60
3E60
ENDCHAR
STARTCHAR ugrave
ENCODING 151
SWIDTH 565 0
DWIDTH 13 0
BBX 11 18 1 0
VVECTOR 7 22
SWIDTH1 0 -1174
DWIDTH1 0 -27
BITMAP 
1800
0C00
0400
0600
0000
0000
C060
C060
C060
C060
C060
C060
C060
C060
C0E0
E1E0
7F60
3E60
ENDCHAR
STARTCHAR ydieresis
ENCODING 152
SWIDTH 478 0
DWIDTH 11 0
BBX 11 21 0 -4
VVECTOR 6 22
SWIDTH1 0 -1174
DWIDTH1 0 -27
BITMAP 
1980
1980
0000
0000
0000
C060
60C0
60C0
60C0
3180
3180
3B00
1B00
1B00
0E00
0E00
0E00
0C00
0C00
7800
7000
ENDCHAR
STARTCHAR Odieresis
ENCODING 153
SWIDTH 783 0
DWIDTH 18 0
BBX 16 21 1 0
VVECTOR 9 22
SWIDTH1 0 -1174
DWIDTH1 0 -27
BITMAP 
0660
0660
0000
0000
0000
07E0
1FF8
381C
700E
6006
C003
C003
C003
C003
C003
C003
6006
700E
381C
1FF8
07E0
ENDCHAR
STARTCHAR Udieresis
ENCODING 154
SWIDTH 696 0
DWIDTH 16 0
BBX 12 21 2 0
VVECTOR 8 22
SWIDTH1 0 -1174
DWIDTH1 0 -27
BITMAP 
0CC0
0CC0
0000
0000
0000
C030
C030
C030
C030
C030
C030
C030
C030
C030
C030
C030
C030
E070
70E0
3FC0
1F80
ENDCHAR
STARTCHAR oslash
ENCODING 155
SWIDTH 565 0
DWIDTH 13 0
BBX 11 12 1 0
VVECTOR 7 22
SWIDTH1 0 -1174
DWIDTH1 0 -27
BITMAP 
1F20
3FE0
71C0
60E0
C360
C660
CC60
D860
70E0
71C0
FF80
9F00
ENDCHAR
STARTCHAR sterling
ENCODING 156
SWIDTH 522 0
DWIDTH 12 0
BBX 10 15 1 0
VVECTOR 6 22
SWIDTH1 0 -1174
DWIDTH1 0 -27
BITMAP 
1E00
7F80
6180
C0C0
C0C0
C000
C000
6000
FE00
3000
3000
3000
6000
FEC0
C7C0
ENDCHAR
STARTCHAR Oslash
ENCODING 157
SWIDTH 783 0
DWIDTH 18 0
BBX 16 16 1 0
VVECTOR 9 22
SWIDTH1 0 -1174
DWIDTH1 0 -27
BITMAP 
07E1
1FFA
381E
700E
601E
C023
C043
C083
C103
C203
CC03
7806
700E
781C
DFF8
87E0
ENDCHAR
STARTCHAR currency
ENCODING 158
SWIDTH 609 0
DWIDTH 14 0
BBX 13 11 1 5
VVECTOR 8 22
SWIDTH1 0 -1174
DWIDTH1 0 -27
BITMAP 
C018
6FB0
18C0
3060
2020
2020
2020
3060
18C0
6FB0
C018
ENDCHAR
STARTCHAR florin
ENCODING 159
SWIDTH 522 0
DWIDTH 12 0
BBX 12 20 -1 -4
VVECTOR 5 22
SWIDTH1 0 -1174
DWIDTH1 0 -27
BITMAP 
0070
00F0
0180
0180
0300
0300
0FE0
0FE0
0300
0700
0600
0600
0600
0600
0E00
0C00
0C00
1C00
7800
F000
ENDCHAR
STARTCHAR aacute
ENCODING 160
SWIDTH 522 0
DWIDTH 12 0
BBX 11 18 1 0
VVECTOR 7 22
SWIDTH1 0 -1174
DWIDTH1 0 -27
BITMAP 
0300
0600
0400
0C00
0000
0000
1F00
7F80
61C0
40C0
00C0
1FC0
7EC0
E0C0
C0C0
C1C0
7EE0
3C60
ENDCHAR
STARTCHAR iacute
ENCODING 161
SWIDTH 174 0
DWIDTH 4 0
BBX 4 18 1 0
VVECTOR 4 22
SWIDTH1 0 -1174
DWIDTH1 0 -27
BITMAP 
30
60
40
C0
00
00
C0
C0
C0
C0
C0
C0
C0
C0
C0
C0
C0
C0
ENDCHAR
STARTCHAR oacute
ENCODING 162
SWIDTH 565 0
DWIDTH 13 0
BBX 11 18 1 0
VVECTOR 7 22
SWIDTH1 0 -1174
DWIDTH1 0 -27
BITMAP 
0300
0600
0400
0C00
0000
0000
1F00
3F80
71C0
E0E0
C060
C060
C060
C060
E0E0
71C0
3F80
1F00
ENDCHAR
STARTCHAR uacute
ENCODING 163
SWIDTH 565 0
DWIDTH 13 0
BBX 11 18 1 0
VVECTOR 7 22
SWIDTH1 0 -1174
DWIDTH1 0 -27
BITMAP 
0300
0600
0400
0C00
0000
0000
C060
C060
C060
C060
C060
C060
C060
C060
C0E0
E1E0
7F60
3E60
ENDCHAR
STARTCHAR ntilde
ENCODING 164
SWIDTH 565 0
DWIDTH 13 0
BBX 11 17 1 0
VVECTOR 7 22
SWIDTH1 0 -1174
DWIDTH1 0 -27
BITMAP 
1900
1F00
2600
0000
0000
CFC0
FFC0
F0E0
E060
C060
C060
C060
C060
C060
C060
C060
C060
ENDCHAR
STARTCHAR Ntilde
ENCODING 165
SWIDTH 696 0
DWIDTH 16 0
BBX 12 21 2 0
VVECTOR 8 22
SWIDTH1 0 -1174
DWIDTH1 0 -27
BITMAP 
0C80
0F80
1300
0000
0000
E030
E030
F030
F030
D830
DC30
CC30
C630
C630
C330
C3B0
C1B0
C0F0
C0F0
C070
C070
ENDCHAR
STARTCHAR ordfeminine
ENCODING 166
SWIDTH 391 0
DWIDTH 9 0
BBX 8 8 1 8
VVECTOR 6 22
SWIDTH1 0 -1174
DWIDTH1 0 -27
BITMAP 
3C
46
06
3E
C6
C6
CE
77
ENDCHAR
STARTCHAR ordmasculine
ENCODING 167
SWIDTH 435 0
DWIDTH 10 0
BBX 8 8 1 8
VVECTOR 5 22
SWIDTH1 0 -1174
DWIDTH1 0 -27
BITMAP 
3C
66
C3
C3
C3
C3
66
3C
ENDCHAR
STARTCHAR questiondown
ENCODING 168
SWIDTH 522 0
DWIDTH 12 0
BBX 10 16 1 0
VVECTOR 6 22
SWIDTH1 0 -1174
DWIDTH1 0 -27
BITMAP 
0C00
0C00
0000
0000
0C00
0C00
0C00
1800
3000
6000
C000
C0C0
C0C0
E180
7F80
3E00
ENDCHAR
STARTCHAR quotedblleft
ENCODING 169
SWIDTH 391 0
DWIDTH 9 0
BBX 5 6 2 10
VVECTOR 5 22
SWIDTH1 0 -1174
DWIDTH1 0 -27
BITMAP 
48
D8
90
90
D8
D8
ENDCHAR
STARTCHAR quotedblright
ENCODING 170
SWIDTH 391 0
DWIDTH 9 0
BBX 5 6 2 10
VVECTOR 5 22
SWIDTH1 0 -1174
DWIDTH1 0 -27
BITMAP 
D8
D8
48
48
D8
90
ENDCHAR
STARTCHAR guilsinglleft
ENCODING 171
SWIDTH 261 0
DWIDTH 6 0
BBX 4 8 1 3
VVECTOR 3 22
SWIDTH1 0 -1174
DWIDTH1 0 -27
BITMAP 
10
30
E0
C0
C0
E0
30
10
ENDCHAR
STARTCHAR guilsinglright
ENCODING 172
SWIDTH 261 0
DWIDTH 6 0
BBX 4 8 1 3
VVECTOR 3 22
SWIDTH1 0 -1174
DWIDTH1 0 -27
BITMAP 
80
C0
70
30
30
70
C0
80
ENDCHAR
STARTCHAR exclamdown
ENCODING 173
SWIDTH 304 0
DWIDTH 7 0
BBX 2 16 3 0
VVECTOR 5 22
SWIDTH1 0 -1174
DWIDTH1 0 -27
BITMAP 
C0
C0
00
00
C0
C0
C0
C0
C0
C0
C0
C0
C0
C0
C0
C0
ENDCHAR
STARTCHAR guillemotleft
ENCODING 174
SWIDTH 435 0
DWIDTH 10 0
BBX 9 8 0 3
VVECTOR 4 22
SWIDTH1 0 -1174
DWIDTH1 0 -27
BITMAP 
1080
3180
E700
C600
C600
E700
3180
1080
ENDCHAR
STARTCHAR guillemotright
ENCODING 175
SWIDTH 435 0
DWIDTH 10 0
BBX 9 8 1 3
VVECTOR 6 22
SWIDTH1 0 -1174
DWIDTH1 0 -27
BITMAP 
8400
C600
7380
3180
3180
7380
C600
8400
ENDCHAR
STARTCHAR atilde
ENCODING 176
SWIDTH 522 0
DWIDTH 12 0
BBX 11 17 1 0
VVECTOR 7 22
SWIDTH1 0 -1174
DWIDTH1 0 -27
BITMAP 
1900
1F00
2600
0000
0000
1F00
7F80
61C0
40C0
00C0
1FC0
7EC0
E0C0
C0C0
C1C0
7EE0
3C60
ENDCHAR
STARTCHAR otilde
ENCODING 177
SWIDTH 565 0
DWIDTH 13 0
BBX 11 17 1 0
VVECTOR 7 22
SWIDTH1 0 -1174
DWIDTH1 0 -27
BITMAP 
1900
1F00
2600
0000
0000
1F00
3F80
71C0
E0E0
C060
C060
C060
C060
E0E0
71C0
3F80
1F00
ENDCHAR
STARTCHAR yen
ENCODING 178
SWIDTH 609 0
DWIDTH 14 0
BBX 14 15 0 0
VVECTOR 7 22
SWIDTH1 0 -1174
DWIDTH1 0 -27
BITMAP 
E01C
7018
3030
3870
1860
1CE0
FCFC
0780
FFFC
0300
0300
0300
0300
0300
0300
ENDCHAR
STARTCHAR cent
ENCODING 179
SWIDTH 522 0
DWIDTH 12 0
BBX 10 16 1 -2
VVECTOR 6 22
SWIDTH1 0 -1174
DWIDTH1 0 -27
BITMAP 
0100
0200
1E00
3F80
6380
E4C0
C400
C400
C800
C8C0
E9C0
7180
3F00
1E00
1000
2000
ENDCHAR
STARTCHAR oe
ENCODING 180
SWIDTH 913 0
DWIDTH 21 0
BBX 19 12 1 0
VVECTOR 11 22
SWIDTH1 0 -1174
DWIDTH1 0 -27
BITMAP 
1F0F00
3F9F80
71F0C0
E0E060
C06060
C07FE0
C07FE0
C06000
E0E060
71F0C0
3F9F80
1F0F00
ENDCHAR
STARTCHAR OE
ENCODING 181
SWIDTH 1130 0
DWIDTH 26 0
BBX 24 16 1 0
VVECTOR 13 22
SWIDTH1 0 -1174
DWIDTH1 0 -27
BITMAP 
1FEFFF
3EFFFF
701C00
600C00
E00C00
C00C00
C00C00
C00FFE
C00FFE
C00C00
C00C00
E00C00
600C00
701C00
3EFFFF
1FEFFF
ENDCHAR
STARTCHAR Agrave
ENCODING 182
SWIDTH 652 0
DWIDTH 15 0
BBX 15 22 0 0
VVECTOR 8 22
SWIDTH1 0 -1174
DWIDTH1 0 -27
BITMAP 
0600
0300
0100
0180
0000
0000
0380
0380
06C0
06C0
0EE0
0C60
0C60
1830
1830
1FF0
3FF8
3018
701C
600C
600C
E00E
ENDCHAR
STARTCHAR Atilde
ENCODING 183
SWIDTH 652 0
DWIDTH 15 0
BBX 15 21 0 0
VVECTOR 8 22
SWIDTH1 0 -1174
DWIDTH1 0 -27
BITMAP 
0640
07C0
0980
0000
0000
0380
0380
06C0
06C0
0EE0
0C60
0C60
1830
1830
1FF0
3FF8
3018
701C
600C
600C
E00E
ENDCHAR
STARTCHAR Otilde
ENCODING 184
SWIDTH 783 0
DWIDTH 18 0
BBX 16 21 1 0
VVECTOR 9 22
SWIDTH1 0 -1174
DWIDTH1 0 -27
BITMAP 
0640
07C0
0980
0000
0000
07E0
1FF8
381C
700E
6006
C003
C003
C003
C003
C003
C003
6006
700E
381C
1FF8
07E0
ENDCHAR
STARTCHAR section
ENCODING 185
SWIDTH 478 0
DWIDTH 11 0
BBX 9 18 1 -2
VVECTOR 6 22
SWIDTH1 0 -1174
DWIDTH1 0 -27
BITMAP 
1C00
3E00
6300
6300
6000
3800
7E00
C700
C380
E180
7980
1F00
0E00
0300
6300
6300
3E00
1C00
ENDCHAR
STARTCHAR daggerdbl
ENCODING 186
SWIDTH 478 0
DWIDTH 11 0
BBX 10 18 1 -2
VVECTOR 7 22
SWIDTH1 0 -1174
DWIDTH1 0 -27
BITMAP 
0C00
0C00
0C00
0C00
FFC0
FFC0
0C00
0C00
0C00
0C00
0C00
0C00
FFC0
FFC0
0C00
0C00
0C00
0C00
ENDCHAR
STARTCHAR dagger
ENCODING 187
SWIDTH 478 0
DWIDTH 11 0
BBX 10 18 1 -2
VVECTOR 7 22
SWIDTH1 0 -1174
DWIDTH1 0 -27
BITMAP 
0C00
0C00
0C00
0C00
FFC0
FFC0
0C00
0C00
0C00
0C00
0C00
0C00
0C00
0C00
0C00
0C00
0C00
0C00
ENDCHAR
STARTCHAR paragraph
ENCODING 188
SWIDTH 478 0
DWIDTH 11 0
BBX 9 17 1 0
VVECTOR 6 22
SWIDTH1 0 -1174
DWIDTH1 0 -27
BITMAP 
3F80
7900
F900
F900
F900
F900
7900
3900
0900
0900
0900
0900
0900
0900
0900
0900
0900
ENDCHAR
STARTCHAR copyright
ENCODING 189
SWIDTH 826 0
DWIDTH 19 0
BBX 16 16 2 1
VVECTOR 11 22
SWIDTH1 0 -1174
DWIDTH1 0 -27
BITMAP 
07E0
1838
200C
47C6
4C62
8831
9801
9801
9801
9801
8C31
4C62
47C2
200C
1838
07C0
ENDCHAR
STARTCHAR registered
ENCODING 190
SWIDTH 826 0
DWIDTH 19 0
BBX 16 16 2 1
VVECTOR 11 22
SWIDTH1 0 -1174
DWIDTH1 0 -27
BITMAP 
03E0
1C18
3004
67E2
4632
8631
8631
87E1
8641
8661
4662
4632
2004
300C
0C38
03C0
ENDCHAR
STARTCHAR trademark
ENCODING 191
SWIDTH 826 0
DWIDTH 19 0
BBX 13 6 3 11
VVECTOR 10 22
SWIDTH1 0 -1174
DWIDTH1 0 -27
BITMAP 
FB18
2318
22A8
22A8
22E8
2248
ENDCHAR
STARTCHAR quotedblbase
ENCODING 192
SWIDTH 391 0
DWIDTH 9 0
BBX 5 5 2 -3
VVECTOR 5 22
SWIDTH1 0 -1174
DWIDTH1 0 -27
BITMAP 
D8
D8
48
48
90
ENDCHAR
STARTCHAR ellipsis
ENCODING 193
SWIDTH 957 0
DWIDTH 22 0
BBX 16 2 3 0
VVECTOR 11 22
SWIDTH1 0 -1174
DWIDTH1 0 -27
BITMAP 
C183
C183
ENDCHAR
STARTCHAR perthousand
ENCODING 194
SWIDTH 1261 0
DWIDTH 29 0
BBX 27 16 1 0
VVECTOR 15 22
SWIDTH1 0 -1174
DWIDTH1 0 -27
BITMAP 
38040000
7E080000
E6080000
C3100000
C3300000
E6200000
7E400000
3C400000
008F0780
019F8FC0
0139DCE0
0330D860
0230D860
04399CC0
041F8FC0
080E0700
ENDCHAR
STARTCHAR bullet
ENCODING 195
SWIDTH 696 0
DWIDTH 16 0
BBX 11 11 3 3
VVECTOR 9 22
SWIDTH1 0 -1174
DWIDTH1 0 -27
BITMAP 
1F00
3F80
7FC0
FFE0
FFE0
FFE0
FFE0
FFE0
7FC0
3F80
1F00
ENDCHAR
STARTCHAR endash
ENCODING 196
SWIDTH 478 0
DWIDTH 11 0
BBX 11 1 0 6
VVECTOR 6 22
SWIDTH1 0 -1174
DWIDTH1 0 -27
BITMAP 
FFE0
ENDCHAR
STARTCHAR emdash
ENCODING 197
SWIDTH 1000 0
DWIDTH 23 0
BBX 23 1 0 6
VVECTOR 12 22
SWIDTH1 0 -1174
DWIDTH1 0 -27
BITMAP 
FFFFFE
ENDCHAR
STARTCHAR degree
ENCODING 198
SWIDTH 304 0
DWIDTH 7 0
BBX 6 6 1 10
VVECTOR 5 22
SWIDTH1 0 -1174
DWIDTH1 0 -27
BITMAP 
78
CC
84
84
CC
78
ENDCHAR
STARTCHAR Aacute
ENCODING 199
SWIDTH 652 0
DWIDTH 15 0
BBX 15 22 0 0
VVECTOR 8 22
SWIDTH1 0 -1174
DWIDTH1 0 -27
BITMAP 
00C0
0180
0100
0300
0000
0000
0380
0380
06C0
06C0
0EE0
0C60
0C60
1830
1830
1FF0
3FF8
3018
701C
600C
600C
E00E
ENDCHAR
STARTCHAR Acircumflex
ENCODING 200
SWIDTH 652 0
DWIDTH 15 0
BBX 15 22 0 0
VVECTOR 8 22
SWIDTH1 0 -1174
DWIDTH1 0 -27
BITMAP 
0180
03C0
0240
0660
0000
0000
0380
0380
06C0
06C0
0EE0
0C60
0C60
1830
1830
1FF0
3FF8
3018
701C
600C
600C
E00E
ENDCHAR
STARTCHAR Egrave
ENCODING 201
SWIDTH 609 0
DWIDTH 14 0
BBX 11 22 2 0
VVECTOR 8 22
SWIDTH1 0 -1174
DWIDTH1 0 -27
BITMAP 
1800
0C00
0400
0600
0000
0000
FFE0
FFE0
C000
C000
C000
C000
C000
FFC0
FFC0
C000
C000
C000
C000
C000
FFE0
FFE0
ENDCHAR
STARTCHAR Ecircumflex
ENCODING 202
SWIDTH 609 0
DWIDTH 14 0
BBX 11 22 2 0
VVECTOR 8 22
SWIDTH1 0 -1174
DWIDTH1 0 -27
BITMAP 
0600
0F00
0900
1980
0000
0000
FFE0
FFE0
C000
C000
C000
C000
C000
FFC0
FFC0
C000
C000
C000
C000
C000
FFE0
FFE0
ENDCHAR
STARTCHAR Edieresis
ENCODING 203
SWIDTH 609 0
DWIDTH 14 0
BBX 11 21 2 0
VVECTOR 8 22
SWIDTH1 0 -1174
DWIDTH1 0 -27
BITMAP 
1980
1980
0000
0000
0000
FFE0
FFE0
C000
C000
C000
C000
C000
FFC0
FFC0
C000
C000
C000
C000
C000
FFE0
FFE0
ENDCHAR
STARTCHAR Igrave
ENCODING 204
SWIDTH 261 0
DWIDTH 6 0
BBX 4 22 0 0
VVECTOR 1 22
SWIDTH1 0 -1174
DWIDTH1 0 -27
BITMAP 
C0
60
20
30
00
00
30
30
30
30
30
30
30
30
30
30
30
30
30
30
30
30
ENDCHAR
STARTCHAR Iacute
ENCODING 205
SWIDTH 261 0
DWIDTH 6 0
BBX 4 22 1 0
VVECTOR 3 22
SWIDTH1 0 -1174
DWIDTH1 0 -27
BITMAP 
30
60
40
C0
00
00
60
60
60
60
60
60
60
60
60
60
60
60
60
60
60
60
ENDCHAR
STARTCHAR Icircumflex
ENCODING 206
SWIDTH 261 0
DWIDTH 6 0
BBX 6 22 0 0
VVECTOR 3 22
SWIDTH1 0 -1174
DWIDTH1 0 -27
BITMAP 
30
78
48
CC
00
00
30
30
30
30
30
30
30
30
30
30
30
30
30
30
30
30
ENDCHAR
STARTCHAR Idieresis
ENCODING 207
SWIDTH 261 0
DWIDTH 6 0
BBX 6 21 0 0
VVECTOR 3 22
SWIDTH1 0 -1174
DWIDTH1 0 -27
BITMAP 
CC
CC
00
00
00
30
30
30
30
30
30
30
30
30
30
30
30
30
30
30
30
ENDCHAR
STARTCHAR Ograve
ENCODING 208
SWIDTH 783 0
DWIDTH 18 0
BBX 16 22 1 0
VVECTOR 9 22
SWIDTH1 0 -1174
DWIDTH1 0 -27
BITMAP 
0600
0300
0100
0180
0000
0000
07E0
1FF8
381C
700E
6006
C003
C003
C003
C003
C003
C003
6006
700E
381C
1FF8
07E0
ENDCHAR
STARTCHAR Oacute
ENCODING 209
SWIDTH 783 0
DWIDTH 18 0
BBX 16 22 1 0
VVECTOR 9 22
SWIDTH1 0 -1174
DWIDTH1 0 -27
BITMAP 
00C0
0180
0100
0300
0000
0000
07E0
1FF8
381C
700E
6006
C003
C003
C003
C003
C003
C003
6006
700E
381C
1FF8
07E0
ENDCHAR
STARTCHAR Ocircumflex
ENCODING 210
SWIDTH 783 0
DWIDTH 18 0
BBX 16 22 1 0
VVECTOR 9 22
SWIDTH1 0 -1174
DWIDTH1 0 -27
BITMAP 
0180
03C0
0240
0660
0000
0000
07E0
1FF8
381C
700E
6006
C003
C003
C003
C003
C003
C003
6006
700E
381C
1FF8
07E0
ENDCHAR
STARTCHAR Scaron
ENCODING 211
SWIDTH 652 0
DWIDTH 15 0
BBX 13 22 1 0
VVECTOR 8 22
SWIDTH1 0 -1174
DWIDTH1 0 -27
BITMAP 
1980
0900
0F00
0600
0000
0000
1F80
3FE0
7070
C030
C038
C000
7C00
3FE0
01F0
0038
C018
C018
C038
F070
7FE0
1FC0
ENDCHAR
STARTCHAR scaron
ENCODING 212
SWIDTH 478 0
DWIDTH 11 0
BBX 9 18 1 0
VVECTOR 6 22
SWIDTH1 0 -1174
DWIDTH1 0 -27
BITMAP 
3300
1200
1E00
0C00
0000
0000
3C00
7F00
E300
C180
C000
7C00
1F00
0180
C180
E380
7F00
3E00
ENDCHAR
STARTCHAR Ugrave
ENCODING 213
SWIDTH 696 0
DWIDTH 16 0
BBX 12 22 2 0
VVECTOR 8 22
SWIDTH1 0 -1174
DWIDTH1 0 -27
BITMAP 
0C00
0600
0200
0300
0000
0000
C030
C030
C030
C030
C030
C030
C030
C030
C030
C030
C030
C030
E070
70E0
3FC0
1F80
ENDCHAR
STARTCHAR Uacute
ENCODING 214
SWIDTH 696 0
DWIDTH 16 0
BBX 12 22 2 0
VVECTOR 8 22
SWIDTH1 0 -1174
DWIDTH1 0 -27
BITMAP 
0180
0300
0200
0600
0000
0000
C030
C030
C030
C030
C030
C030
C030
C030
C030
C030
C030
C030
E070
70E0
3FC0
1F80
ENDCHAR
STARTCHAR Ucircumflex
ENCODING 215
SWIDTH 696 0
DWIDTH 16 0
BBX 12 22 2 0
VVECTOR 8 22
SWIDTH1 0 -1174
DWIDTH1 0 -27
BITMAP 
0300
0780
0480
0CC0
0000
0000
C030
C030
C030
C030
C030
C030
C030
C030
C030
C030
C030
C030
E070
70E0
3FC0
1F80
ENDCHAR
STARTCHAR Ydieresis
ENCODING 216
SWIDTH 609 0
DWIDTH 14 0
BBX 14 21 0 0
VVECTOR 7 22
SWIDTH1 0 -1174
DWIDTH1 0 -27
BITMAP 
0CC0
0CC0
0000
0000
0000
E01C
7038
3030
3870
1860
1CE0
0CC0
0780
0780
0300
0300
0300
0300
0300
0300
0300
ENDCHAR
STARTCHAR germandbls
ENCODING 217
SWIDTH 522 0
DWIDTH 12 0
BBX 10 16 1 0
VVECTOR 6 22
SWIDTH1 0 -1174
DWIDTH1 0 -27
BITMAP 
3E00
7F00
E180
C180
C180
C380
CF00
CF80
C180
C0C0
C0C0
C0C0
C0C0
C180
CF80
CF00
ENDCHAR
STARTCHAR charDA
ENCODING 218
SWIDTH 0 0
DWIDTH 0 0
BBX 0 0 0 -5
VVECTOR 0 -5
SWIDTH1 0 0
DWIDTH1 0 0
BITMAP 
ENDCHAR
STARTCHAR charDB
ENCODING 219
SWIDTH 0 0
DWIDTH 0 0
BBX 0 0 0 -5
VVECTOR 0 -5
SWIDTH1 0 0
DWIDTH1 0 0
BITMAP 
ENDCHAR
STARTCHAR charDC
ENCODING 220
SWIDTH 0 0
DWIDTH 0 0
BBX 0 0 0 -5
VVECTOR 0 -5
SWIDTH1 0 0
DWIDTH1 0 0
BITMAP 
ENDCHAR
STARTCHAR charDD
ENCODING 221
SWIDTH 0 0
DWIDTH 0 0
BBX 0 0 0 -5
VVECTOR 0 -5
SWIDTH1 0 0
DWIDTH1 0 0
BITMAP 
ENDCHAR
STARTCHAR charDE
ENCODING 222
SWIDTH 0 0
DWIDTH 0 0
BBX 0 0 0 -5
VVECTOR 0 -5
SWIDTH1 0 0
DWIDTH1 0 0
BITMAP 
ENDCHAR
STARTCHAR charDF
ENCODING 223
SWIDTH 0 0
DWIDTH 0 0
BBX 0 0 0 -5
VVECTOR 0 -5
SWIDTH1 0 0
DWIDTH1 0 0
BITMAP 
ENDCHAR
STARTCHAR charE0
ENCODING 224
SWIDTH 0 0
DWIDTH 0 0
BBX 0 0 0 -5
VVECTOR 0 -5
SWIDTH1 0 0
DWIDTH1 0 0
BITMAP 
ENDCHAR
STARTCHAR beta
ENCODING 225
SWIDTH 522 0
DWIDTH 12 0
BBX 10 16 1 0
VVECTOR 6 22
SWIDTH1 0 -1174
DWIDTH1 0 -27
BITMAP 
3E00
7F00
E180
C180
C180
C380
CF00
CF80
C180
C0C0
C0C0
C0C0
C0C0
C180
CF80
CF00
ENDCHAR
ENDFONT
